# xmcd
#
# Track frame offsets:
# 150
# 16887
# 28569
# 43966
# 59604
# 73088
# 96956
# 116904
# 137856
# 163085
# 185353
# 207402
# 222792
# 236681
#
# Disc length: 3347 seconds
#
#
# Revision: 0
# Processed by: cddbd v1.5.2PL0 Copyright (c) Steve Scherf et al.
# Submitted via: Nero 7, 11, 10, 0 
#
DISCID=d60d110e
DTITLE=Dmitri Resnik - Bootleg Liquor
DYEAR=2004
DGENRE=Blues
TTITLE0=Got No Time For Taking Numbers
TTITLE1=I Got A Gal
TTITLE2=Knock Me Out
TTITLE3=The Jealous Kind
TTITLE4=Shockoe Bottom
TTITLE5=Rough And Tumble
TTITLE6=We Free Kings
TTITLE7=Country Girl
TTITLE8=Runnin' Shoes
TTITLE9=Joes Blues
TTITLE10=Ain't That Just Like A Woman
TTITLE11=Jambalaya (On The Bayou)
TTITLE12=Curly Cue
TTITLE13=Bootleg Liquor
EXTD=
EXTT0=Got No Time For Taking Numbers
EXTT1=I Got A Gal
EXTT2=Knock Me Out
EXTT3=The Jealous Kind
EXTT4=Shockoe Bottom
EXTT5=Rough And Tumble
EXTT6=We Free Kings
EXTT7=Country Girl
EXTT8=Runnin' Shoes
EXTT9=Joes Blues
EXTT10=Ain't That Just Like A Woman
EXTT11=Jambalaya (On The Bayou)
EXTT12=Curly Cue
EXTT13=Bootleg Liquor
PLAYORDER=
